<svg xmlns="http://www.w3.org/2000/svg" viewBox="0 0 64 64" fill="none">
  <defs>
    <linearGradient id="g1" x1="0" y1="0" x2="1" y2="1">
      <stop offset="0%" stop-color="#FF6B1A"/>
      <stop offset="100%" stop-color="#FFAB40"/>
    </linearGradient>
    <linearGradient id="g2" x1="0" y1="0" x2="0" y2="1">
      <stop offset="0%" stop-color="#FF6B1A" stop-opacity="0.9"/>
      <stop offset="100%" stop-color="#FF6B1A" stop-opacity="0.3"/>
    </linearGradient>
  </defs>
  <!-- Plate base -->
  <ellipse cx="32" cy="44" rx="20" ry="5" fill="#FF6B1A" opacity="0.15"/>
  <!-- Fork -->
  <path d="M14 16 L14 32 Q14 35 17 35 L17 48" stroke="url(#g1)" stroke-width="2" stroke-linecap="round" fill="none"/>
  <path d="M12 16 L12 24" stroke="url(#g1)" stroke-width="1.5" stroke-linecap="round"/>
  <path d="M16 16 L16 24" stroke="url(#g1)" stroke-width="1.5" stroke-linecap="round"/>
  <!-- Flame / S shape -->
  <path d="M28 38 C24 36 24 30 28 28 C32 26 36 20 32 14 C38 18 40 26 36 30 C32 34 36 38 40 36 C38 44 28 44 28 38 Z" fill="url(#g1)"/>
  <!-- Sparkle top -->
  <circle cx="46" cy="14" r="2" fill="#FFAB40"/>
  <path d="M46 10 L46 12 M46 16 L46 18 M42 14 L44 14 M48 14 L50 14 M43.2 11.2 L44.6 12.6 M47.4 15.4 L48.8 16.8 M48.8 11.2 L47.4 12.6 M44.6 15.4 L43.2 16.8" stroke="#FFAB40" stroke-width="1.2" stroke-linecap="round"/>
</svg>
